<?xml version="1.0" encoding="UTF-8"?>
<svg width="390px" height="160px" viewBox="0 0 390 160" version="1.1" xmlns="http://www.w3.org/2000/svg" xmlns:xlink="http://www.w3.org/1999/xlink">
    <title>img</title>
    <defs>
        <linearGradient x1="50%" y1="0%" x2="50%" y2="98.8571579%" id="linearGradient-1">
            <stop stop-color="#E6EDFF" offset="0%"></stop>
            <stop stop-color="#EFF4FF" offset="100%"></stop>
        </linearGradient>
        <linearGradient x1="100%" y1="50%" x2="0%" y2="80.2469136%" id="linearGradient-2">
            <stop stop-color="#DEE5FA" offset="0%"></stop>
            <stop stop-color="#CFD9FA" offset="100%"></stop>
        </linearGradient>
    </defs>
    <g id="页面-1" stroke="none" stroke-width="1" fill="none" fill-rule="evenodd">
        <g id="无实例页面备份" transform="translate(-1010.000000, -72.000000)">
            <g id="方案3" transform="translate(1010.000000, 72.000000)">
                <g id="编组" transform="translate(27.000000, 17.000000)">
                    <g id="编组-15" transform="translate(0.001866, 3.213471)" fill-rule="nonzero">
                        <path d="M283.986721,119.473778 L282.942623,119.473778 L279.81033,119.473778 L267.61739,119.473778 L221.889442,119.631644 L64.0536955,120 L63.699764,120 L63.5758879,119.596563 C60.0585961,107.671282 62.5046647,94.7979377 70.1575929,84.9578977 C77.8105211,75.1178577 89.7480728,69.4969213 102.278296,69.8334875 L101.694309,70.5877392 C100.723771,67.1665607 100.311543,63.6135356 100.473245,60.063296 C100.951053,47.9601864 107.88811,36.2780544 118.541448,30.8755069 C129.031252,25.438638 141.556799,25.5043272 151.987973,31.0509143 L151.173931,31.3491069 C156.927666,18.116699 168.012781,7.87993746 181.735915,3.1260584 C194.760594,-1.57485956 209.200998,-0.960933703 220.562199,4.88013227 C231.367289,10.5431395 239.859452,19.741514 244.594147,30.9105884 C248.944275,40.7248596 249.986836,51.6676151 247.567171,62.1155625 L247.124757,61.6244218 C253.357584,60.9696198 259.656428,61.8804892 265.440711,64.2730733 C270.578051,66.3347182 275.202955,69.4766151 278.996287,73.4819611 C280.730076,75.2709014 282.169278,77.3189463 283.261162,79.5510567 C284.235276,81.6166606 284.999983,83.7730636 285.54402,85.9885078 C286.461897,89.8497539 286.983648,93.7930763 287.101318,97.7583434 C287.294539,103.221904 286.813161,108.688388 285.667896,114.036149 C285.366642,115.418126 284.988539,116.782539 284.535315,118.123141 C284.216777,119.035259 284.039811,119.473778 284.039811,119.473778" id="路径备份-5" fill="url(#linearGradient-1)"></path>
                        <path d="M42.3972101,104.899141 L42.197798,104.899141 L41.5995617,104.899141 L39.270834,104.899141 L30.5372602,104.929399 L0.392234982,105 L0.324637661,105 L0.300978599,104.922675 C-0.370788435,102.636996 0.0963858352,100.169605 1.55801742,98.2835971 C3.01964901,96.3975894 5.2996002,95.3202432 7.69274562,95.3847518 L7.58121004,95.5293167 C7.3958471,94.8735908 7.31711575,94.1925943 7.34799929,93.5121317 C7.43925567,91.1923691 8.76416316,88.9532938 10.7988425,87.9178055 C12.8022886,86.875739 15.1945409,86.8883294 17.1867893,87.9514252 L17.0313155,88.0085788 C18.1302205,85.4723673 20.2473649,83.5103213 22.8683441,82.5991612 C25.3559255,81.6981519 28.1138962,81.815821 30.2837702,82.9353587 C32.3474328,84.0207684 33.9693496,85.7837902 34.8736283,87.9245294 C35.7044586,89.8055981 35.9035771,91.9029596 35.4414458,93.9054828 L35.3569491,93.8113475 C36.5473559,93.6858438 37.7503712,93.8604271 38.8551105,94.3190057 C39.8362901,94.7141543 40.7195998,95.3163512 41.4440879,96.0840425 C41.7752239,96.4269228 42.0500969,96.8194647 42.2586356,97.2472859 C42.4446815,97.6431933 42.5907327,98.0565038 42.6946383,98.4811307 C42.8699435,99.2212028 42.9695927,99.9770063 42.9920665,100.737016 C43.0289698,101.784198 42.9370314,102.831941 42.7182974,103.856929 C42.660761,104.121808 42.588547,104.38332 42.5019859,104.640269 C42.4411484,104.815091 42.4073497,104.899141 42.4073497,104.899141" id="路径备份" fill="#CFD9FA"></path>
                        <path d="M345.299082,62.8816 L345.067207,62.8816 L344.371583,62.8816 L341.66376,62.8816 L331.508442,62.91712 L296.456087,63 L296.377486,63 L296.349975,62.9092267 C295.568851,60.2260384 296.112077,57.329536 297.811648,55.115527 C299.51122,52.901518 302.162326,51.6368073 304.945053,51.7125347 L304.815361,51.8822413 C304.599822,51.1124762 304.508274,50.3130455 304.544185,49.5142416 C304.650297,46.7910419 306.190887,44.1625622 308.556794,42.9469891 C310.886382,41.7236936 313.668071,41.7384736 315.984639,42.9864557 L315.803855,43.053549 C317.081652,40.0762573 319.543448,37.7729859 322.591098,36.7033631 C325.483634,35.6456566 328.690577,35.7837899 331.213686,37.0980298 C333.613294,38.3722064 335.499244,40.4418407 336.550731,42.9548824 C337.516812,45.1630934 337.748346,47.6252134 337.210983,49.9760016 L337.112732,49.8654949 C338.496925,49.7181644 339.89578,49.9231101 341.180361,50.4614415 C342.321268,50.9253116 343.348372,51.6322384 344.1908,52.5334412 C344.575842,52.9359528 344.895462,53.3967629 345.137948,53.8989878 C345.354281,54.3637486 345.524108,54.8489393 345.644928,55.3474142 C345.848771,56.2161946 345.964643,57.1034422 345.990775,57.9956273 C346.033686,59.2249284 345.926781,60.4548874 345.672439,61.6581335 C345.605536,61.9690784 345.521566,62.2760712 345.420914,62.5777067 C345.350173,62.7829334 345.310872,62.8816 345.310872,62.8816" id="路径备份-2" fill="#F2F5FC"></path>
                    </g>
                    <path d="M237.360114,54.3293123 L240.192362,53.2776515 C240.679142,53.0969017 241.234096,53.3109922 241.431886,53.755836 C241.529425,53.9752095 241.524831,54.2214492 241.419165,54.4376566 L237.870657,61.698387 C237.656388,62.1368104 237.093771,62.333488 236.614016,62.1376786 C236.400046,62.0503481 236.228874,61.8939228 236.133311,61.698387 L232.584803,54.4376566 C232.370534,53.9992331 232.585753,53.4850858 233.065508,53.2892764 C233.302098,53.1927136 233.571552,53.1885152 233.811606,53.2776515 L236.643854,54.3293123 C236.873491,54.4145803 237.130477,54.4145803 237.360114,54.3293123 Z" id="Arrow" fill="#7693F5"></path>
                    <g transform="translate(96.000000, 0.000000)">
                        <g id="电脑">
                            <path d="M0,116 L138,116 C138,119.865993 134.865993,123 131,123 L7,123 C3.13400675,123 4.73447626e-16,119.865993 0,116 L0,116 L0,116 Z" id="矩形" fill="#88A1F6" fill-rule="nonzero"></path>
                            <path d="M58,116 L80,116 C80,118.209139 78.209139,120 76,120 L62,120 C59.790861,120 58,118.209139 58,116 L58,116 L58,116 Z" id="矩形" fill="#7693F5" fill-rule="nonzero"></path>
                            <path d="M12.9333333,38 L125.066667,38 C126.134417,38 127,38.8730447 127,39.95 L127,114.05 C127,115.126955 126.134417,116 125.066667,116 L12.9333333,116 C11.8655828,116 11,115.126955 11,114.05 L11,39.95 C11,38.8730447 11.8655828,38 12.9333333,38 Z" id="Shape" fill="#ABBDF8" fill-rule="nonzero"></path>
                            <path d="M19,44 L119,44 C120.104569,44 121,44.8954305 121,46 L121,110 C121,111.104569 120.104569,112 119,112 L19,112 C17.8954305,112 17,111.104569 17,110 L17,46 C17,44.8954305 17.8954305,44 19,44 Z" id="Shape" fill="#F2F5FC" fill-rule="nonzero"></path>
                            <g id="编组-42" transform="translate(68.001866, 78.213471)">
                                <path d="M0,4.42105263 L0,27 C2.02974496e-15,27.5522847 0.44771525,28 1,28 L35,28 C35.5522847,28 36,27.5522847 36,27 L36,1 C36,0.44771525 35.5522847,-9.07819798e-13 35,-9.07718345e-13 L21,-9.07718345e-13 L21,-9.07718345e-13 C18.8970464,-9.07718345e-13 18.7535865,4.42105263 15,4.42105263 L0,4.42105263 Z" id="路径" fill="#A9BCFA" fill-rule="nonzero" transform="translate(18.000000, 14.000000) scale(-1, 1) translate(-18.000000, -14.000000) "></path>
                                <rect id="矩形" fill="#DEE5FA" x="2.94736842" y="2.94736842" width="32.4210526" height="25.0526316" rx="1"></rect>
                                <path d="M0,7.33333333 L0,27 C6.76353751e-17,27.5522847 0.44771525,28 1,28 L35,28 C35.5522847,28 36,27.5522847 36,27 L36,3 C36,2.44771525 35.5522847,2 35,2 L24,2 L24,2 C21.8970464,2 21.7535865,6.33333333 18,6.33333333 L1,6.33333333 C0.44771525,6.33333333 1.50700651e-13,6.78104858 0,7.33333333 Z" id="路径" fill="#BECCFA" fill-rule="nonzero"></path>
                            </g>
                            <g id="编组-42备份-2" transform="translate(155.001866, 0.213471)">
                                <path d="M11,7.42105263 L11,27 C11,27.5522847 11.4477153,28 12,28 L46,28 C46.5522847,28 47,27.5522847 47,27 L47,1 C47,0.44771525 46.5522847,-9.09596155e-13 46,-9.09494702e-13 L32,-9.09494702e-13 L32,-9.09494702e-13 C29.8970464,-9.09494702e-13 29.7535865,4.42105263 26,4.42105263 L14,4.42105263 C12.3431458,4.42105263 11,5.76419838 11,7.42105263 Z" id="路径" fill="url(#linearGradient-2)" fill-rule="nonzero" transform="translate(29.000000, 14.000000) scale(-1, 1) translate(-29.000000, -14.000000) "></path>
                                <g id="编组-42备份" transform="translate(0.000000, 8.000000)">
                                    <path d="M0,4.42105263 L0,27 C2.02974496e-15,27.5522847 0.44771525,28 1,28 L35,28 C35.5522847,28 36,27.5522847 36,27 L36,1 C36,0.44771525 35.5522847,-9.07819798e-13 35,-9.07718345e-13 L21,-9.07718345e-13 L21,-9.07718345e-13 C18.8970464,-9.07718345e-13 18.7535865,4.42105263 15,4.42105263 L0,4.42105263 Z" id="路径" fill="#A9BCFA" fill-rule="nonzero" transform="translate(18.000000, 14.000000) scale(-1, 1) translate(-18.000000, -14.000000) "></path>
                                    <rect id="矩形" fill="#FFFFFF" x="2.94736842" y="2.94736842" width="32.4210526" height="25.0526316" rx="1"></rect>
                                    <path d="M0,7.33333333 L0,27 C6.76353751e-17,27.5522847 0.44771525,28 1,28 L35,28 C35.5522847,28 36,27.5522847 36,27 L36,3 C36,2.44771525 35.5522847,2 35,2 L24,2 L24,2 C21.8970464,2 21.7535865,6.33333333 18,6.33333333 L1,6.33333333 C0.44771525,6.33333333 1.50700651e-13,6.78104858 0,7.33333333 Z" id="路径" fill="#7693F5" fill-rule="nonzero"></path>
                                </g>
                            </g>
                            <rect id="矩形" fill="#DEE5FA" fill-rule="nonzero" x="34.0018657" y="57.2134707" width="70" height="15" rx="2"></rect>
                            <rect id="矩形" fill="#DEE5FA" fill-rule="nonzero" x="34.0018657" y="78.2134707" width="24" height="28" rx="2"></rect>
                            <g id="编组-14" transform="translate(17.000000, 44.000000)">
                                <path d="M2,0 L102,0 C103.104569,-2.02906125e-16 104,0.8954305 104,2 L104,6 L104,6 L0,6 L0,2 C-1.3527075e-16,0.8954305 0.8954305,2.02906125e-16 2,0 Z" id="Shape" fill="#88A1F6" fill-rule="nonzero"></path>
                                <circle id="椭圆形" fill="#DEE5FA" cx="5.53333333" cy="3.09433962" r="1"></circle>
                                <circle id="椭圆形备份" fill="#DEE5FA" cx="9.53333333" cy="3.09433962" r="1"></circle>
                                <circle id="椭圆形备份-2" fill="#DEE5FA" cx="13.5333333" cy="3.09433962" r="1"></circle>
                            </g>
                        </g>
                        <path d="M104.235294,94.2134707 L137.152859,94.2134707 C139.361998,94.2134707 141.152859,92.4226097 141.152859,90.2134707 L141.152859,28.2134707 C141.152859,26.0043317 142.94372,24.2134707 145.152859,24.2134707 L155.235294,24.2134707 L155.235294,24.2134707" id="路径-3备份" stroke="#7693F5" stroke-width="2" stroke-dasharray="2,2" fill-rule="nonzero"></path>
                    </g>
                </g>
                <rect id="矩形" fill="#FFFFFF" opacity="0" x="0" y="0" width="390" height="160"></rect>
            </g>
        </g>
    </g>
</svg>