<?xml version="1.0" encoding="UTF-8"?>
<svg width="34px" height="34px" viewBox="0 0 34 34" version="1.1" xmlns="http://www.w3.org/2000/svg" xmlns:xlink="http://www.w3.org/1999/xlink">
    <title>logo-TinyUI</title>
    <g id="页面一" stroke="none" stroke-width="1" fill="none" fill-rule="evenodd">
        <g id="-TinyUI-ICON-1-【9-2】-无阴影" transform="translate(-47.000000, -230.000000)">
            <g id="编组-20" transform="translate(5.000000, 50.000000)">
                <g id="logo-TinyUI" transform="translate(42.000000, 180.000000)">
                    <rect id="矩形" fill="#5073E5" x="0" y="0" width="34" height="34" rx="8"></rect>
                    <path d="M26.2596977,21.7494808 L20.756581,16.4503807 C21.0924059,15.6540809 21.2762517,14.7836511 21.2762517,13.8725694 C21.2762517,10.0775911 18.0797866,7 14.135682,7 C12.8953359,7 11.7334307,7.30369391 10.7161507,7.83695173 L14.7926243,11.7610597 C14.9225419,11.8854068 14.9985315,12.0575798 14.9985315,12.2369266 C14.9985315,12.4162734 14.9249932,12.586055 14.7926243,12.7127934 L12.9296538,14.5062614 C12.6551108,14.7693034 12.2163322,14.7693034 11.9417892,14.5062614 L7.87021825,10.5845447 C7.29661946,11.5912781 6.99756367,12.7247499 7,13.877352 C7,17.6723302 10.19648,20.7499213 14.1405846,20.7499213 C15.2338541,20.7499213 16.268293,20.5131836 17.1973269,20.0899251 L22.5950387,25.2861997 C23.5829033,26.2379334 25.1958435,26.2379334 26.1837081,25.2861997 L26.2621489,25.2096784 C26.7352454,24.7529419 27.0024346,24.1312063 27,23.4807753 C27,22.8279529 26.7327941,22.2062174 26.2596977,21.7494808 Z" id="路径" fill="#FFFFFF" fill-rule="nonzero"></path>
                    <path d="M17.5085544,11.1549095 C17.2120918,11.451864 17.2120918,11.9328083 17.5085544,12.2297628 C17.7477427,12.4694637 17.879499,12.7872067 17.879499,13.1257272 C17.879499,13.4642477 17.7477427,13.7819908 17.5085544,14.0216917 C17.3165549,14.2137862 17.2416189,14.4937219 17.311974,14.7560495 C17.382329,15.0183772 17.5872866,15.2232431 17.8496411,15.2934762 C18.1119955,15.3637092 18.3918891,15.2886395 18.5838885,15.0965449 C19.1084891,14.5751314 19.4024932,13.8653799 19.4002834,13.1257272 C19.4024932,12.3860746 19.1084891,11.676323 18.5838885,11.1549095 C18.441322,11.0122482 18.2479055,10.9320942 18.0462214,10.9320942 C17.8445373,10.9320942 17.6511208,11.0122482 17.5085544,11.1549095 L17.5085544,11.1549095 Z" id="路径" fill="#5073E5"></path>
                </g>
            </g>
        </g>
    </g>
</svg>